<?xml version="1.0" standalone="no"?>
<svg xmlns:xlink="http://www.w3.org/1999/xlink" id="wave" style="transform:rotate(180deg); transition: 0.3s" viewBox="0 0 1440 230" version="1.1" xmlns="http://www.w3.org/2000/svg"><defs><linearGradient id="sw-gradient-0" x1="0" x2="0" y1="1" y2="0"><stop stop-color="rgba(243, 106, 62, 1)" offset="0%"/><stop stop-color="rgba(255, 179, 11, 1)" offset="100%"/></linearGradient></defs><path style="transform:translate(0, 0px); opacity:1" fill="url(#sw-gradient-0)" d="M0,0L26.7,19.2C53.3,38,107,77,160,103.5C213.3,130,267,146,320,149.5C373.3,153,427,146,480,138C533.3,130,587,123,640,115C693.3,107,747,100,800,84.3C853.3,69,907,46,960,49.8C1013.3,54,1067,84,1120,115C1173.3,146,1227,176,1280,176.3C1333.3,176,1387,146,1440,115C1493.3,84,1547,54,1600,61.3C1653.3,69,1707,115,1760,138C1813.3,161,1867,161,1920,141.8C1973.3,123,2027,84,2080,61.3C2133.3,38,2187,31,2240,30.7C2293.3,31,2347,38,2400,34.5C2453.3,31,2507,15,2560,23C2613.3,31,2667,61,2720,65.2C2773.3,69,2827,46,2880,42.2C2933.3,38,2987,54,3040,69C3093.3,84,3147,100,3200,99.7C3253.3,100,3307,84,3360,80.5C3413.3,77,3467,84,3520,107.3C3573.3,130,3627,169,3680,168.7C3733.3,169,3787,130,3813,111.2L3840,92L3840,230L3813.3,230C3786.7,230,3733,230,3680,230C3626.7,230,3573,230,3520,230C3466.7,230,3413,230,3360,230C3306.7,230,3253,230,3200,230C3146.7,230,3093,230,3040,230C2986.7,230,2933,230,2880,230C2826.7,230,2773,230,2720,230C2666.7,230,2613,230,2560,230C2506.7,230,2453,230,2400,230C2346.7,230,2293,230,2240,230C2186.7,230,2133,230,2080,230C2026.7,230,1973,230,1920,230C1866.7,230,1813,230,1760,230C1706.7,230,1653,230,1600,230C1546.7,230,1493,230,1440,230C1386.7,230,1333,230,1280,230C1226.7,230,1173,230,1120,230C1066.7,230,1013,230,960,230C906.7,230,853,230,800,230C746.7,230,693,230,640,230C586.7,230,533,230,480,230C426.7,230,373,230,320,230C266.7,230,213,230,160,230C106.7,230,53,230,27,230L0,230Z"/></svg>